<!-- icon666.com - MILLIONS vector ICONS FREE --><svg id="Artboard_30" viewBox="0 0 64 64" xmlns="http://www.w3.org/2000/svg" data-name="Artboard 30"><path d="m21 62a7.017 7.017 0 0 1 3.668-6.148l4.418-1.124v3.272h-.086a4 4 0 0 0 -4 4z" fill="#393a3a"></path><path d="m43 62a7.017 7.017 0 0 0 -3.668-6.148l-4.418-1.124v3.272h.086a4 4 0 0 1 4 4" fill="#393a3a"></path><path d="m22.783 34.216-4.4 24.6a3.49 3.49 0 0 1 -4.383 3.058c-4.5-1.246-10.113-4.692-11.588-9.184a8.252 8.252 0 0 1 -.24-4.252l3.673-15.779 1.019-3.677 15.919 1.078z" fill="#70281e"></path><path d="m5.845 32.659 1.019-3.677 13.286.9-4.282 23.949a3.49 3.49 0 0 1 -4.384 3.061 20.824 20.824 0 0 1 -9.38-5.57 8.224 8.224 0 0 1 .068-2.884z" fill="#953528"></path><path d="m41.217 34.216 4.4 24.6a3.49 3.49 0 0 0 4.383 3.058c4.5-1.246 10.113-4.692 11.588-9.184a8.263 8.263 0 0 0 .24-4.252l-3.673-15.779-1.019-3.677-15.919 1.078z" fill="#70281e"></path><path d="m58.155 32.659-1.019-3.677-13.286.9 4.282 23.949a3.49 3.49 0 0 0 4.384 3.061 20.824 20.824 0 0 0 9.38-5.57 8.224 8.224 0 0 0 -.068-2.884z" fill="#953528"></path><path d="m10.49 23.394 1.939-2.394a25.164 25.164 0 0 1 1.82-3.473l2.93-3.8a25.161 25.161 0 0 1 14.821-7.727 25.161 25.161 0 0 1 14.821 7.723l2.93 3.8a25.1 25.1 0 0 1 1.82 3.477l1.938 2.395v6.389h-43.019z" fill="#70281e"></path><path d="m16.156 26.377-3.318-1.538a12.207 12.207 0 0 1 -4.881-4.147 1.524 1.524 0 0 0 -2.411-.185l-.011.011a14.181 14.181 0 0 0 -3.488 7.048 2.758 2.758 0 0 0 .662 2.364 18.589 18.589 0 0 0 7.329 4.9l5.629 2.029a2.529 2.529 0 0 0 3.214-1.612l.629-1.7z" fill="#ffc239"></path><path d="m18.119 30.573-3.667-.924a33.344 33.344 0 0 1 -10.42-6.2l-.365-.349a14.254 14.254 0 0 0 -.892 1.9 35.323 35.323 0 0 0 11.036 6.54.91.91 0 0 0 .1.032l5.3 1.335z" fill="#f4ac1c"></path><path d="m47.843 26.377 3.319-1.538a12.207 12.207 0 0 0 4.881-4.147 1.524 1.524 0 0 1 2.411-.185l.011.011a14.181 14.181 0 0 1 3.488 7.048 2.758 2.758 0 0 1 -.662 2.364 18.589 18.589 0 0 1 -7.329 4.9l-5.629 2.029a2.529 2.529 0 0 1 -3.214-1.612l-.629-1.7z" fill="#ffc239"></path><path d="m45.771 30.807-.3.644.431 1.407 4.286-1.313a35.335 35.335 0 0 0 11.037-6.545 14.163 14.163 0 0 0 -.889-1.9l-.175.175-.194.171a33.3 33.3 0 0 1 -10.419 6.2z" fill="#f4ac1c"></path><path d="m38 18.984a6 6 0 0 0 -12 0v3.191h-5.742l-5.39 5.525c-1.706 1.748-.8 4.313 1.806 5.09a54.148 54.148 0 0 0 30.648 0c2.6-.777 3.512-3.342 1.806-5.09l-5.389-5.521h-5.704z" fill="#953528"></path><path d="m43.741 22.175h-5.706l-.035-3.191a6 6 0 0 0 -12 0v3.191h-3.284a22.616 22.616 0 0 0 11.766 12.762 53.371 53.371 0 0 0 12.842-2.151c2.6-.777 3.512-3.342 1.806-5.09z" fill="#c64635"></path><path d="m28.373 27.17a4.536 4.536 0 0 0 7.253 0l.6-.8a8.265 8.265 0 0 1 4.352-2.986 18.894 18.894 0 0 0 12.045-10.355l1.377-3.029a11.148 11.148 0 0 1 7.688.844l.312.156-.521-1.822a4.86 4.86 0 0 0 -6.479-3.178l-.253-.506a6.322 6.322 0 0 0 -5.654-3.494h-1a1.121 1.121 0 0 0 -.932 1.742 4.411 4.411 0 0 0 2.274 1.736 1.389 1.389 0 0 1 .783 1.975l-3.088 5.734a11.054 11.054 0 0 1 -9.73 5.813c-2.082 0-3.986 2.84-4.918 4.7a.536.536 0 0 1 -.96 0c-.934-1.86-2.838-4.7-4.922-4.7a11.054 11.054 0 0 1 -9.732-5.813l-3.086-5.734a1.389 1.389 0 0 1 .783-1.975 4.411 4.411 0 0 0 2.274-1.736 1.121 1.121 0 0 0 -.932-1.742h-1a6.322 6.322 0 0 0 -5.654 3.494l-.253.506a4.86 4.86 0 0 0 -6.479 3.178l-.521 1.822.312-.156a11.148 11.148 0 0 1 7.688-.844l1.377 3.029a18.894 18.894 0 0 0 12.046 10.359 8.264 8.264 0 0 1 4.354 2.988z" fill="#ffc239"></path><path d="m31 15h2v10h-2z" fill="#70281e"></path><path d="m19.42 53.02a19.631 19.631 0 0 0 9.58 3.819v-3.839a18.209 18.209 0 0 1 -9.012-3.963z" fill="#4b4c4c"></path><path d="m44.58 53.182a19.62 19.62 0 0 1 -9.58 3.818v-3.839a18.209 18.209 0 0 0 9.012-3.961z" fill="#4b4c4c"></path><rect fill="#b8b8bb" height="7" rx="1.5" width="3" x="29" y="52"></rect><rect fill="#b8b8bb" height="7" rx="1.5" width="3" x="32" y="52"></rect><path d="m55 6-.253-.506a6.322 6.322 0 0 0 -5.654-3.494h-1a1.121 1.121 0 0 0 -.932 1.742 4.411 4.411 0 0 0 2.274 1.736 1.389 1.389 0 0 1 .783 1.975l-3.088 5.734a11.054 11.054 0 0 1 -9.73 5.813c-2.082 0-3.986 2.84-4.918 4.7a.536.536 0 0 1 -.96 0c-.934-1.86-2.838-4.7-4.922-4.7a11.006 11.006 0 0 1 -3.175-.479 41.216 41.216 0 0 0 10.175 10.141 4.455 4.455 0 0 0 2.022-1.491l.6-.8a8.265 8.265 0 0 1 4.352-2.986 18.894 18.894 0 0 0 12.049-10.356l1.377-3.029a11.148 11.148 0 0 1 7.688.844l.312.156-.521-1.822a4.86 4.86 0 0 0 -6.479-3.178z" fill="#ffd55d"></path><g fill="#393a3a"><path d="m44.389 51.952.352 1.973a37.3 37.3 0 0 0 4.171-.729l-.457-1.947a34.857 34.857 0 0 1 -3.982.7z"></path><path d="m42.773 42.917.352 1.97c1.048-.122 2.1-.292 3.133-.506l-.408-1.958c-.992.206-2.006.37-3.035.488z"></path><path d="m49.25 43.62a35.289 35.289 0 0 0 10.282-5.044l-.495-2.128-.337.273a33.266 33.266 0 0 1 -10.026 4.984z"></path><path d="m61.116 45.381-.33.269a34.788 34.788 0 0 1 -9.519 4.812l.619 1.9a36.845 36.845 0 0 0 9.723-4.862z"></path></g><path d="m47.458 47.062a2 2 0 0 1 -1.945-1.552l-.9-3.9a2 2 0 0 1 1.5-2.4l.975-.224a2 2 0 0 1 2.4 1.5l.9 3.9a2 2 0 0 1 -1.5 2.4l-.975.224a2 2 0 0 1 -.455.052zm0-2 .975-.225-.9-3.9-.975.225z" fill="#e3e3e4"></path><path d="m50.125 56.023a2 2 0 0 1 -1.949-1.55l-.9-3.9a2 2 0 0 1 1.5-2.4l.975-.224a2 2 0 0 1 2.4 1.5l.9 3.9a2 2 0 0 1 -1.5 2.4l-.975.224a1.976 1.976 0 0 1 -.451.05zm.075-6.123-.973.224.9 3.9.973-.224z" fill="#e3e3e4"></path><path d="m19.615 51.95-.353 1.972a37.112 37.112 0 0 1 -4.171-.728l.457-1.947a35.133 35.133 0 0 0 3.983.7z" fill="#393a3a"></path><path d="m21.23 42.915-.352 1.97c-1.048-.122-2.1-.292-3.132-.506l.408-1.958c.991.206 2.006.37 3.034.488z" fill="#393a3a"></path><path d="m14.754 43.618a35.32 35.32 0 0 1 -10.283-5.044l.5-2.129.336.274a33.283 33.283 0 0 0 10.023 4.981z" fill="#393a3a"></path><path d="m2.887 45.379.33.269a34.808 34.808 0 0 0 9.52 4.812l-.619 1.9a36.785 36.785 0 0 1 -9.718-4.866z" fill="#393a3a"></path><path d="m16.092 47.008-.974-.225a2 2 0 0 1 -1.5-2.4l.9-3.9a2 2 0 0 1 2.4-1.5l.974.225a2 2 0 0 1 1.5 2.4l-.9 3.9a2 2 0 0 1 -2.4 1.5zm.45-1.949.9-3.9-.975-.224-.9 3.9.975.225z" fill="#e3e3e4"></path><path d="m13.429 55.97-.974-.225a2 2 0 0 1 -1.5-2.4l.9-3.9a2 2 0 0 1 2.4-1.5l.974.225a2 2 0 0 1 1.5 2.4l-.9 3.9a2 2 0 0 1 -2.4 1.5zm-.529-2.17.975.225.9-3.9-.975-.225z" fill="#e3e3e4"></path><rect fill="#b8b8bb" height="6" rx="1" transform="matrix(.974 .225 -.225 .974 10.079 -2.608)" width="3" x="15.004" y="39.998"></rect><rect fill="#b8b8bb" height="6" rx="1" transform="matrix(.974 .225 -.225 .974 12.024 -1.781)" width="3" x="12.341" y="48.96"></rect><rect fill="#b8b8bb" height="6" rx="1" transform="matrix(-.974 .225 -.225 -.974 103.445 74.232)" width="3" x="46" y="40"></rect><rect fill="#b8b8bb" height="6" rx="1" transform="matrix(-.974 .225 -.225 -.974 110.715 91.329)" width="3" x="48.663" y="48.962"></rect><path d="m62.025 30.6a3.761 3.761 0 0 0 .912-3.226 15.151 15.151 0 0 0 -3.749-7.556 2.523 2.523 0 0 0 -3.966.3 11.638 11.638 0 0 1 -1.6 1.823l-1.189-1.469a26.4 26.4 0 0 0 -1.48-2.872 19.9 19.9 0 0 0 2.58-4.168l1.172-2.577a10.162 10.162 0 0 1 6.535.872l.313.157a1 1 0 0 0 1.409-1.169l-.521-1.815a5.859 5.859 0 0 0 -6.93-4.1 7.278 7.278 0 0 0 -6.418-3.8h-1a2.121 2.121 0 0 0 -1.765 3.3 5.434 5.434 0 0 0 2.789 2.13.388.388 0 0 1 .219.552l-2.753 5.112a26.243 26.243 0 0 0 -14.441-7.094 1.039 1.039 0 0 0 -.284 0 26.243 26.243 0 0 0 -14.442 7.081l-2.753-5.11a.388.388 0 0 1 .219-.552 5.434 5.434 0 0 0 2.789-2.13 2.121 2.121 0 0 0 -1.765-3.3h-1a7.277 7.277 0 0 0 -6.418 3.8 5.859 5.859 0 0 0 -6.929 4.111l-.521 1.822a1 1 0 0 0 1.409 1.169l.313-.157a10.155 10.155 0 0 1 6.54-.876l1.172 2.577a19.9 19.9 0 0 0 2.58 4.168 26.4 26.4 0 0 0 -1.482 2.865l-1.188 1.469a11.536 11.536 0 0 1 -1.6-1.823 2.523 2.523 0 0 0 -3.982-.282 15.129 15.129 0 0 0 -3.738 7.544 3.759 3.759 0 0 0 .913 3.224 20.2 20.2 0 0 0 2.746 2.466l-3.529 15.161a9.274 9.274 0 0 0 .27 4.767c1.598 4.866 7.481 8.506 12.271 9.836a4.485 4.485 0 0 0 5.636-3.849l.761-4.256a19.52 19.52 0 0 0 2.509 1.359 7.96 7.96 0 0 0 -2.639 5.91v.043a1 1 0 0 0 .976.954h.024.07 3.93a1 1 0 0 0 1-1 3 3 0 0 1 2.555-2.949 2.462 2.462 0 0 0 3.445.438 2.463 2.463 0 0 0 3.45-.442 3 3 0 0 1 2.55 2.954 1 1 0 0 0 1 1h4a1.007 1.007 0 0 0 1-1.011 8 8 0 0 0 -2.628-5.9 19.508 19.508 0 0 0 2.5-1.355l.748 4.174a4.538 4.538 0 0 0 1.946 3.306 4.439 4.439 0 0 0 3.7.621c4.79-1.327 10.673-4.97 12.271-9.836a9.286 9.286 0 0 0 .263-4.791l-3.522-15.133a20.143 20.143 0 0 0 2.747-2.467zm-5.16-9.347a.568.568 0 0 1 .424-.261.527.527 0 0 1 .441.2 12.708 12.708 0 0 1 1.839 2.586 33.327 33.327 0 0 1 -8.624 5.313 3.957 3.957 0 0 0 -1.1-2.1l-.3-.307 2.037-.944a13.237 13.237 0 0 0 5.283-4.486zm-39.905 10.567a2.622 2.622 0 0 1 -1.907-1.706 1.784 1.784 0 0 1 .531-1.727l4.916-5.031a20.034 20.034 0 0 0 2.655.986 7.3 7.3 0 0 1 3.826 2.627l.6.794a5.492 5.492 0 0 0 4.419 2.211 5.491 5.491 0 0 0 4.426-2.21l.6-.8a7.3 7.3 0 0 1 3.825-2.625 19.882 19.882 0 0 0 2.654-.986l4.911 5.031a1.784 1.784 0 0 1 .532 1.727 2.624 2.624 0 0 1 -1.908 1.706 53.134 53.134 0 0 1 -30.08.003zm28.553 13.68a2 2 0 0 0 1.949 1.552 1.978 1.978 0 0 0 .449-.052l.975-.224a2 2 0 0 0 1.5-2.4l-.244-1.056a35.27 35.27 0 0 0 8.508-4.137l1.587 6.819a34.759 34.759 0 0 1 -7.937 4.074l-.146-.632a2 2 0 0 0 -2.4-1.5l-.975.224a2 2 0 0 0 -1.5 2.4l.2.873q-1.044.215-2.1.364l-1.262-7.062c.394-.057.785-.121 1.176-.191zm1.05-4.346.975-.225.9 3.9-.975.224zm4.537 12.637-.975.224-.9-3.9.973-.225zm-15.688-1.891a2.459 2.459 0 0 0 -3.412-.4 2.459 2.459 0 0 0 -3.414.4 17.184 17.184 0 0 1 -7.38-3.2l2.394-13.354a55.458 55.458 0 0 0 8.4.646 55.481 55.481 0 0 0 8.406-.646l2.388 13.354a17.172 17.172 0 0 1 -7.382 3.2zm-20.189-3.732-.975-.224a2 2 0 0 0 -2.4 1.5l-.146.632a34.762 34.762 0 0 1 -7.939-4.076l1.587-6.814a35.252 35.252 0 0 0 8.508 4.137l-.244 1.056a2 2 0 0 0 1.5 2.4l.975.224a1.978 1.978 0 0 0 .449.052 2 2 0 0 0 1.949-1.555l.22-.951c.392.07.783.134 1.177.191l-1.261 7.06q-1.058-.15-2.1-.364l.2-.873a2 2 0 0 0 -1.5-2.395zm-.45 1.95-.9 3.9-.974-.224.9-3.9zm.79-5.289.9-3.9.975.224-.9 3.9zm35.178-20.9-2.677 1.241-2.692-2.758a19.83 19.83 0 0 0 4.182-3.227 24.2 24.2 0 0 1 1.1 2.205 1.008 1.008 0 0 0 .142.235l1.27 1.569a10.694 10.694 0 0 1 -1.325.73zm-18.741-16.929a24.24 24.24 0 0 1 13.53 6.844 10.033 10.033 0 0 1 -6.63 4.028 6.991 6.991 0 0 0 -13.8 0 10.033 10.033 0 0 1 -6.628-4.025 24.24 24.24 0 0 1 13.528-6.847zm-1 7.989v5.922a6.518 6.518 0 0 0 -3.9-2.883 4.994 4.994 0 0 1 9.8 0 6.518 6.518 0 0 0 -3.9 2.886v-5.922zm-20.09-5.41a1 1 0 0 0 -.668-.557 12.163 12.163 0 0 0 -6.7.232 3.862 3.862 0 0 1 1.958-2.215 3.821 3.821 0 0 1 3.129-.119 1 1 0 0 0 1.271-.481l.252-.5a5.292 5.292 0 0 1 4.76-2.942h1a.109.109 0 0 1 .107.064.108.108 0 0 1 -.006.123 3.423 3.423 0 0 1 -1.758 1.342 2.39 2.39 0 0 0 -1.348 3.4l3.088 5.734a12.039 12.039 0 0 0 10.605 6.332c1.345 0 2.99 2.085 4.024 4.152a1.538 1.538 0 0 0 2.749 0c1.033-2.066 2.678-4.151 4.023-4.151a12.039 12.039 0 0 0 10.613-6.339l3.091-5.735a2.39 2.39 0 0 0 -1.348-3.4 3.423 3.423 0 0 1 -1.758-1.342.108.108 0 0 1 -.006-.123.109.109 0 0 1 .107-.064h1a5.292 5.292 0 0 1 4.76 2.942l.252.5a1 1 0 0 0 1.266.481 3.821 3.821 0 0 1 3.134.119 3.862 3.862 0 0 1 1.953 2.215 12.158 12.158 0 0 0 -6.7-.232 1 1 0 0 0 -.668.557l-1.377 3.029a17.862 17.862 0 0 1 -11.415 9.817 9.313 9.313 0 0 0 -4.879 3.348l-.6.8a3.5 3.5 0 0 1 -2.821 1.408 3.506 3.506 0 0 1 -2.826-1.412l-.6-.794a9.316 9.316 0 0 0 -4.88-3.35 17.862 17.862 0 0 1 -11.409-9.81zm2.3 12.041a1.008 1.008 0 0 0 .142-.235 24.2 24.2 0 0 1 1.1-2.205 19.819 19.819 0 0 0 4.181 3.226l-2.692 2.758-2.676-1.24a10.694 10.694 0 0 1 -1.323-.735zm-6.93-.442a.531.531 0 0 1 .431-.185.572.572 0 0 1 .425.261 13.228 13.228 0 0 0 5.281 4.485l2.036.943-.3.308a3.956 3.956 0 0 0 -1.1 2.1 33.291 33.291 0 0 1 -8.622-5.312 12.816 12.816 0 0 1 1.849-2.6zm-2.837 8.065a1.752 1.752 0 0 1 -.413-1.5 13.683 13.683 0 0 1 .557-2.065 35.294 35.294 0 0 0 9.828 5.7 4.793 4.793 0 0 0 2.975 2.357q.891.265 1.795.5l-.242.652a1.522 1.522 0 0 1 -1.937 1.018l-5.629-2.029a17.668 17.668 0 0 1 -6.934-4.633zm6.257 6.517 5.629 2.029a3.427 3.427 0 0 0 1.16.2 3.583 3.583 0 0 0 3.33-2.41l.325-.875c.491.108.986.2 1.481.3l-1.388 7.765c-.361-.051-.72-.108-1.08-.171l.23-1a2 2 0 0 0 -1.5-2.4l-.975-.225a2 2 0 0 0 -2.4 1.5l-.2.864a33.228 33.228 0 0 1 -8.473-4.271l.661-2.815a18.973 18.973 0 0 0 3.2 1.509zm7.69 22.947a2.545 2.545 0 0 1 -1.09 1.853 2.445 2.445 0 0 1 -2.036.342c-4.43-1.226-9.6-4.55-10.9-8.532a7.254 7.254 0 0 1 -.216-3.714l.134-.576a36.768 36.768 0 0 0 7.972 3.959l-.3 1.3a2 2 0 0 0 1.5 2.4l.975.224a1.978 1.978 0 0 0 .449.052 2 2 0 0 0 1.949-1.552l.248-1.075q1.093.225 2.2.385zm3.427-7.824a19.216 19.216 0 0 0 7.183 2.946v1.836a18.4 18.4 0 0 1 -7.484-3.1zm3.283 10.109h-2.015a5.982 5.982 0 0 1 2.715-4.064c.68.219 1.38.4 2.091.55a5 5 0 0 0 -2.791 3.514zm6.4-3a.5.5 0 0 1 -.5-.5v-4a.5.5 0 1 1 1 0v4a.5.5 0 0 1 -.5.5zm3.5-.5a.5.5 0 0 1 -1 0v-4a.5.5 0 1 1 1 0zm7.915 3.5h-2.015a4.981 4.981 0 0 0 -2.815-3.509 21.6 21.6 0 0 0 2.116-.556 5.988 5.988 0 0 1 2.714 4.065zm-5.915-5.327v-1.838a19.21 19.21 0 0 0 7.184-2.953l.3 1.692a18.411 18.411 0 0 1 -7.484 3.099zm24.638-3.3c-1.307 3.982-6.475 7.306-10.9 8.532a2.441 2.441 0 0 1 -2.038-.337 2.6 2.6 0 0 1 -1.1-1.931l-.869-4.856q1.105-.159 2.2-.384l.248 1.075a2 2 0 0 0 1.949 1.552 1.978 1.978 0 0 0 .449-.052l.975-.224a2 2 0 0 0 1.5-2.4l-.3-1.3a36.768 36.768 0 0 0 7.968-3.96l.129.552a7.276 7.276 0 0 1 -.211 3.738zm-2.48-15.3a33.221 33.221 0 0 1 -8.472 4.271l-.2-.864a2 2 0 0 0 -2.4-1.5l-.975.225a2 2 0 0 0 -1.5 2.4l.23 1q-.539.095-1.079.171l-1.389-7.766c.5-.094.99-.19 1.481-.3l.325.875a3.58 3.58 0 0 0 3.33 2.41 3.427 3.427 0 0 0 1.16-.2l5.631-2.027a18.973 18.973 0 0 0 3.2-1.509zm2.4-7.831a17.668 17.668 0 0 1 -6.934 4.635l-5.629 2.029a1.525 1.525 0 0 1 -1.937-1.018l-.242-.653q.9-.234 1.8-.5a4.794 4.794 0 0 0 2.973-2.355 35.289 35.289 0 0 0 9.83-5.706 13.7 13.7 0 0 1 .557 2.064 1.754 1.754 0 0 1 -.419 1.513z"></path></svg>