<?xml version="1.0" encoding="UTF-8"?>
<svg xmlns="http://www.w3.org/2000/svg" xmlns:xlink="http://www.w3.org/1999/xlink" width="3000" height="2000" viewBox="0 0 3000 2000">
<defs>
<clipPath id="clip-0">
<path clip-rule="nonzero" d="M 809 528 L 2078 528 L 2078 1430 L 809 1430 Z M 809 528 "/>
</clipPath>
<clipPath id="clip-1">
<path clip-rule="nonzero" d="M 1974.410156 1429.671875 C 1974.410156 1429.671875 2002.160156 1399.941406 1993.558594 1371.839844 C 1993.558594 1371.839844 1993.179688 1371.808594 1992.488281 1371.808594 C 1989.191406 1371.808594 1978.941406 1372.449219 1971.5 1379.859375 C 1999.601562 1311.679688 2014.339844 1237.980469 2014.339844 1162.019531 C 2014.339844 1009.460938 1954.929688 866.019531 1847.039062 758.128906 C 1739.148438 650.238281 1595.710938 590.828125 1443.148438 590.828125 C 1290.589844 590.828125 1147.148438 650.238281 1039.261719 758.128906 C 931.363281 866.019531 871.953125 1009.460938 871.953125 1162.019531 C 871.953125 1237.980469 886.695312 1311.679688 914.796875 1379.859375 C 907.363281 1372.449219 897.109375 1371.808594 893.804688 1371.808594 C 893.121094 1371.808594 892.734375 1371.839844 892.734375 1371.839844 C 884.136719 1399.941406 911.886719 1429.671875 911.886719 1429.671875 C 899.253906 1417.449219 885.296875 1414.238281 874.097656 1414.238281 C 869.496094 1414.238281 865.363281 1414.78125 861.976562 1415.460938 C 828.085938 1337.851562 809.285156 1252.140625 809.285156 1162.019531 C 809.285156 811.949219 1093.078125 528.160156 1443.148438 528.160156 C 1793.21875 528.160156 2077.011719 811.949219 2077.011719 1162.019531 C 2077.011719 1252.140625 2058.210938 1337.851562 2024.320312 1415.460938 C 2020.929688 1414.78125 2016.800781 1414.238281 2012.199219 1414.238281 C 2001 1414.238281 1987.050781 1417.449219 1974.410156 1429.671875 "/>
</clipPath>
<clipPath id="clip-2">
<path clip-rule="nonzero" d="M 1974.410156 1429.671875 C 1974.410156 1429.671875 2002.160156 1399.941406 1993.558594 1371.839844 C 1993.558594 1371.839844 1993.179688 1371.808594 1992.488281 1371.808594 C 1989.191406 1371.808594 1978.941406 1372.449219 1971.5 1379.859375 C 1999.601562 1311.679688 2014.339844 1237.980469 2014.339844 1162.019531 C 2014.339844 1009.460938 1954.929688 866.019531 1847.039062 758.128906 C 1739.148438 650.238281 1595.710938 590.828125 1443.148438 590.828125 C 1290.589844 590.828125 1147.148438 650.238281 1039.261719 758.128906 C 931.363281 866.019531 871.953125 1009.460938 871.953125 1162.019531 C 871.953125 1237.980469 886.695312 1311.679688 914.796875 1379.859375 C 907.363281 1372.449219 897.109375 1371.808594 893.804688 1371.808594 C 893.121094 1371.808594 892.734375 1371.839844 892.734375 1371.839844 C 884.136719 1399.941406 911.886719 1429.671875 911.886719 1429.671875 C 899.253906 1417.449219 885.296875 1414.238281 874.097656 1414.238281 C 869.496094 1414.238281 865.363281 1414.78125 861.976562 1415.460938 C 828.085938 1337.851562 809.285156 1252.140625 809.285156 1162.019531 C 809.285156 811.949219 1093.078125 528.160156 1443.148438 528.160156 C 1793.21875 528.160156 2077.011719 811.949219 2077.011719 1162.019531 C 2077.011719 1252.140625 2058.210938 1337.851562 2024.320312 1415.460938 C 2020.929688 1414.78125 2016.800781 1414.238281 2012.199219 1414.238281 C 2001 1414.238281 1987.050781 1417.449219 1974.410156 1429.671875 "/>
</clipPath>
<linearGradient id="linear-pattern-0" gradientUnits="userSpaceOnUse" x1="0.000000000000000666" y1="0" x2="0.999998" y2="0" gradientTransform="matrix(0, -901.512, 901.512, 0, 1443.15, 1429.67)">
<stop offset="0" stop-color="rgb(90.21759%, 89.36615%, 83.44574%)" stop-opacity="1"/>
<stop offset="0.015625" stop-color="rgb(90.21759%, 89.358521%, 83.267212%)" stop-opacity="1"/>
<stop offset="0.03125" stop-color="rgb(90.21759%, 89.350891%, 83.085632%)" stop-opacity="1"/>
<stop offset="0.0625" stop-color="rgb(90.21759%, 89.350891%, 83.084106%)" stop-opacity="1"/>
<stop offset="0.125" stop-color="rgb(90.21759%, 89.350891%, 83.084106%)" stop-opacity="1"/>
<stop offset="0.140625" stop-color="rgb(90.21759%, 89.344788%, 82.928467%)" stop-opacity="1"/>
<stop offset="0.15625" stop-color="rgb(90.21759%, 89.337158%, 82.748413%)" stop-opacity="1"/>
<stop offset="0.171875" stop-color="rgb(90.060425%, 89.291382%, 82.720947%)" stop-opacity="1"/>
<stop offset="0.1875" stop-color="rgb(89.868164%, 89.23645%, 82.719421%)" stop-opacity="1"/>
<stop offset="0.25" stop-color="rgb(89.833069%, 89.225769%, 82.719421%)" stop-opacity="1"/>
<stop offset="0.28125" stop-color="rgb(89.833069%, 89.225769%, 82.719421%)" stop-opacity="1"/>
<stop offset="0.296875" stop-color="rgb(89.833069%, 89.221191%, 82.592773%)" stop-opacity="1"/>
<stop offset="0.3125" stop-color="rgb(89.834595%, 89.213562%, 82.41272%)" stop-opacity="1"/>
<stop offset="0.375" stop-color="rgb(89.834595%, 89.212036%, 82.357788%)" stop-opacity="1"/>
<stop offset="0.40625" stop-color="rgb(89.720154%, 89.178467%, 82.357788%)" stop-opacity="1"/>
<stop offset="0.4375" stop-color="rgb(89.529419%, 89.120483%, 82.255554%)" stop-opacity="1"/>
<stop offset="0.5" stop-color="rgb(89.450073%, 89.089966%, 82.0755%)" stop-opacity="1"/>
<stop offset="0.53125" stop-color="rgb(89.450073%, 89.086914%, 81.996155%)" stop-opacity="1"/>
<stop offset="0.546875" stop-color="rgb(89.450073%, 89.083862%, 81.915283%)" stop-opacity="1"/>
<stop offset="0.5625" stop-color="rgb(89.450073%, 89.076233%, 81.735229%)" stop-opacity="1"/>
<stop offset="0.625" stop-color="rgb(89.450073%, 89.071655%, 81.636047%)" stop-opacity="1"/>
<stop offset="0.6875" stop-color="rgb(89.390564%, 89.051819%, 81.57959%)" stop-opacity="1"/>
<stop offset="0.75" stop-color="rgb(89.198303%, 88.990784%, 81.399536%)" stop-opacity="1"/>
<stop offset="0.8125" stop-color="rgb(89.065552%, 88.946533%, 81.274414%)" stop-opacity="1"/>
<stop offset="0.84375" stop-color="rgb(89.065552%, 88.946533%, 81.246948%)" stop-opacity="1"/>
<stop offset="0.875" stop-color="rgb(89.065552%, 88.938904%, 81.066895%)" stop-opacity="1"/>
<stop offset="0.890625" stop-color="rgb(89.067078%, 88.952637%, 80.921936%)" stop-opacity="1"/>
<stop offset="0.90625" stop-color="rgb(89.076233%, 89.13269%, 80.990601%)" stop-opacity="1"/>
<stop offset="0.9375" stop-color="rgb(89.083862%, 89.292908%, 81.051636%)" stop-opacity="1"/>
<stop offset="1" stop-color="rgb(89.083862%, 89.292908%, 81.051636%)" stop-opacity="1"/>
</linearGradient>
<clipPath id="clip-3">
<path clip-rule="nonzero" d="M 809 1365 L 1024 1365 L 1024 1606 L 809 1606 Z M 809 1365 "/>
</clipPath>
<clipPath id="clip-4">
<path clip-rule="nonzero" d="M 1011.550781 1537.351562 L 1011.53125 1537.511719 L 1023.238281 1605.261719 C 1023.238281 1605.261719 994.6875 1596.949219 979.898438 1594.671875 C 947.433594 1589.679688 883.863281 1568.300781 809.285156 1482.671875 L 866.941406 1478.050781 L 845.457031 1444.738281 C 845.457031 1444.738281 858.542969 1441.980469 877.167969 1447.71875 C 892.835938 1452.53125 912.441406 1463.390625 931.414062 1486.949219 C 931.414062 1486.949219 927.582031 1443.761719 864.886719 1422 C 861.027344 1420.648438 856.9375 1419.371094 852.628906 1418.21875 C 852.628906 1418.21875 856.210938 1416.640625 861.976562 1415.460938 C 873.609375 1413.128906 894.066406 1412.429688 911.886719 1429.671875 C 911.886719 1429.671875 884.136719 1399.941406 892.734375 1371.839844 C 892.734375 1371.839844 905.820312 1370.910156 914.796875 1379.859375 C 918.757812 1383.769531 921.941406 1389.640625 922.816406 1398.359375 C 922.816406 1398.359375 934.273438 1379.761719 927.105469 1365.320312 C 927.105469 1365.320312 1012.851562 1450.03125 1011.550781 1537.351562 Z M 1011.550781 1537.351562 "/>
</clipPath>
<clipPath id="clip-5">
<path clip-rule="nonzero" d="M 1011.550781 1537.351562 L 1011.53125 1537.511719 L 1023.238281 1605.261719 C 1023.238281 1605.261719 994.6875 1596.949219 979.898438 1594.671875 C 947.433594 1589.679688 883.863281 1568.300781 809.285156 1482.671875 L 866.941406 1478.050781 L 845.457031 1444.738281 C 845.457031 1444.738281 858.542969 1441.980469 877.167969 1447.71875 C 892.835938 1452.53125 912.441406 1463.390625 931.414062 1486.949219 C 931.414062 1486.949219 927.582031 1443.761719 864.886719 1422 C 861.027344 1420.648438 856.9375 1419.371094 852.628906 1418.21875 C 852.628906 1418.21875 856.210938 1416.640625 861.976562 1415.460938 C 873.609375 1413.128906 894.066406 1412.429688 911.886719 1429.671875 C 911.886719 1429.671875 884.136719 1399.941406 892.734375 1371.839844 C 892.734375 1371.839844 905.820312 1370.910156 914.796875 1379.859375 C 918.757812 1383.769531 921.941406 1389.640625 922.816406 1398.359375 C 922.816406 1398.359375 934.273438 1379.761719 927.105469 1365.320312 C 927.105469 1365.320312 1012.851562 1450.03125 1011.550781 1537.351562 "/>
</clipPath>
<linearGradient id="linear-pattern-1" gradientUnits="userSpaceOnUse" x1="0.517769" y1="0" x2="0.705493" y2="0" gradientTransform="matrix(737.125, 1478.83, -1478.83, 737.125, 458.978, 584)">
<stop offset="0" stop-color="rgb(8.378601%, 7.971191%, 8.926392%)" stop-opacity="1"/>
<stop offset="0.0625" stop-color="rgb(8.355713%, 7.962036%, 8.8974%)" stop-opacity="1"/>
<stop offset="0.125" stop-color="rgb(8.296204%, 7.91626%, 8.804321%)" stop-opacity="1"/>
<stop offset="0.25" stop-color="rgb(8.259583%, 7.876587%, 8.740234%)" stop-opacity="1"/>
<stop offset="0.375" stop-color="rgb(8.259583%, 7.879639%, 8.74176%)" stop-opacity="1"/>
<stop offset="0.5" stop-color="rgb(8.255005%, 7.911682%, 8.743286%)" stop-opacity="1"/>
<stop offset="0.625" stop-color="rgb(8.248901%, 7.943726%, 8.732605%)" stop-opacity="1"/>
<stop offset="0.75" stop-color="rgb(8.242798%, 7.884216%, 8.644104%)" stop-opacity="1"/>
<stop offset="0.875" stop-color="rgb(8.229065%, 7.85675%, 8.557129%)" stop-opacity="1"/>
<stop offset="1" stop-color="rgb(8.224487%, 7.89032%, 8.547974%)" stop-opacity="1"/>
</linearGradient>
<clipPath id="clip-6">
<path clip-rule="nonzero" d="M 1787 1365 L 2078 1365 L 2078 1624 L 1787 1624 Z M 1787 1365 "/>
</clipPath>
<clipPath id="clip-7">
<path clip-rule="nonzero" d="M 2019.359375 1478.050781 L 2040.839844 1444.738281 C 2040.839844 1444.738281 2027.75 1441.980469 2009.128906 1447.71875 C 1993.460938 1452.53125 1973.859375 1463.390625 1954.878906 1486.949219 C 1954.878906 1486.949219 1958.71875 1443.761719 2021.410156 1422 C 2025.269531 1420.648438 2029.359375 1419.371094 2033.671875 1418.21875 C 2033.671875 1418.21875 2030.089844 1416.640625 2024.320312 1415.460938 C 2012.691406 1413.128906 1992.230469 1412.429688 1974.410156 1429.671875 C 1974.410156 1429.671875 2002.160156 1399.941406 1993.558594 1371.839844 C 1993.558594 1371.839844 1980.480469 1370.910156 1971.5 1379.859375 C 1967.539062 1383.769531 1964.359375 1389.640625 1963.480469 1398.359375 C 1963.480469 1398.359375 1952.019531 1379.761719 1959.191406 1365.320312 C 1959.191406 1365.320312 1933.828125 1390.410156 1910.898438 1427.320312 L 1912.449219 1412.089844 C 1912.449219 1412.089844 1899.539062 1415.578125 1885.550781 1429.148438 C 1873.78125 1440.558594 1861.25 1459.128906 1855.050781 1488.75 C 1855.050781 1488.75 1838.851562 1448.53125 1884.808594 1400.660156 C 1887.628906 1397.699219 1890.691406 1394.710938 1894.011719 1391.71875 C 1894.011719 1391.71875 1890.101562 1391.941406 1884.429688 1393.511719 C 1873.011719 1396.71875 1854.46875 1405.390625 1846.421875 1428.851562 C 1846.421875 1428.851562 1857.640625 1389.761719 1837.210938 1368.628906 C 1837.210938 1368.628906 1825.128906 1373.75 1821.199219 1385.800781 C 1819.449219 1391.078125 1819.28125 1397.75 1822.460938 1405.921875 C 1822.460938 1405.921875 1803.808594 1394.558594 1803.628906 1378.441406 C 1803.628906 1378.441406 1766.058594 1491.808594 1806.039062 1568.980469 C 1806.261719 1569.371094 1806.46875 1569.769531 1806.671875 1570.179688 L 1829.851562 1623.089844 C 1829.851562 1623.089844 1848.660156 1615.480469 1860.800781 1606.730469 C 1866.988281 1602.269531 1874.28125 1596.238281 1882.160156 1588.261719 L 1883.261719 1595.820312 C 1883.261719 1595.820312 1891.609375 1596.949219 1906.398438 1594.671875 C 1938.859375 1589.679688 2002.441406 1568.300781 2077.011719 1482.671875 Z M 2019.359375 1478.050781 "/>
</clipPath>
<clipPath id="clip-8">
<path clip-rule="nonzero" d="M 2019.359375 1478.050781 L 2040.839844 1444.738281 C 2040.839844 1444.738281 2027.75 1441.980469 2009.128906 1447.71875 C 1993.460938 1452.53125 1973.859375 1463.390625 1954.878906 1486.949219 C 1954.878906 1486.949219 1958.71875 1443.761719 2021.410156 1422 C 2025.269531 1420.648438 2029.359375 1419.371094 2033.671875 1418.21875 C 2033.671875 1418.21875 2030.089844 1416.640625 2024.320312 1415.460938 C 2012.691406 1413.128906 1992.230469 1412.429688 1974.410156 1429.671875 C 1974.410156 1429.671875 2002.160156 1399.941406 1993.558594 1371.839844 C 1993.558594 1371.839844 1980.480469 1370.910156 1971.5 1379.859375 C 1967.539062 1383.769531 1964.359375 1389.640625 1963.480469 1398.359375 C 1963.480469 1398.359375 1952.019531 1379.761719 1959.191406 1365.320312 C 1959.191406 1365.320312 1933.828125 1390.410156 1910.898438 1427.320312 L 1912.449219 1412.089844 C 1912.449219 1412.089844 1899.539062 1415.578125 1885.550781 1429.148438 C 1873.78125 1440.558594 1861.25 1459.128906 1855.050781 1488.75 C 1855.050781 1488.75 1838.851562 1448.53125 1884.808594 1400.660156 C 1887.628906 1397.699219 1890.691406 1394.710938 1894.011719 1391.71875 C 1894.011719 1391.71875 1890.101562 1391.941406 1884.429688 1393.511719 C 1873.011719 1396.71875 1854.46875 1405.390625 1846.421875 1428.851562 C 1846.421875 1428.851562 1857.640625 1389.761719 1837.210938 1368.628906 C 1837.210938 1368.628906 1825.128906 1373.75 1821.199219 1385.800781 C 1819.449219 1391.078125 1819.28125 1397.75 1822.460938 1405.921875 C 1822.460938 1405.921875 1803.808594 1394.558594 1803.628906 1378.441406 C 1803.628906 1378.441406 1766.058594 1491.808594 1806.039062 1568.980469 C 1806.261719 1569.371094 1806.46875 1569.769531 1806.671875 1570.179688 L 1829.851562 1623.089844 C 1829.851562 1623.089844 1848.660156 1615.480469 1860.800781 1606.730469 C 1866.988281 1602.269531 1874.28125 1596.238281 1882.160156 1588.261719 L 1883.261719 1595.820312 C 1883.261719 1595.820312 1891.609375 1596.949219 1906.398438 1594.671875 C 1938.859375 1589.679688 2002.441406 1568.300781 2077.011719 1482.671875 L 2019.359375 1478.050781 "/>
</clipPath>
<linearGradient id="linear-pattern-2" gradientUnits="userSpaceOnUse" x1="0.792322" y1="0" x2="1.031528" y2="0" gradientTransform="matrix(688.935, 1382.15, -1382.15, 688.935, 1295.4, 232.73)">
<stop offset="0" stop-color="rgb(8.110046%, 7.771301%, 8.352661%)" stop-opacity="1"/>
<stop offset="0.0625" stop-color="rgb(8.105469%, 7.798767%, 8.364868%)" stop-opacity="1"/>
<stop offset="0.125" stop-color="rgb(8.139038%, 7.832336%, 8.377075%)" stop-opacity="1"/>
<stop offset="0.1875" stop-color="rgb(8.145142%, 7.792664%, 8.320618%)" stop-opacity="1"/>
<stop offset="0.25" stop-color="rgb(8.096313%, 7.731628%, 8.229065%)" stop-opacity="1"/>
<stop offset="0.5" stop-color="rgb(8.082581%, 7.71637%, 8.187866%)" stop-opacity="1"/>
<stop offset="0.5625" stop-color="rgb(8.079529%, 7.730103%, 8.184814%)" stop-opacity="1"/>
<stop offset="0.625" stop-color="rgb(8.055115%, 7.740784%, 8.166504%)" stop-opacity="1"/>
<stop offset="0.75" stop-color="rgb(7.99408%, 7.698059%, 8.079529%)" stop-opacity="1"/>
<stop offset="1" stop-color="rgb(7.955933%, 7.658386%, 8.015442%)" stop-opacity="1"/>
</linearGradient>
<clipPath id="clip-9">
<path clip-rule="nonzero" d="M 1662 938 L 1900 938 L 1900 1293 L 1662 1293 Z M 1662 938 "/>
</clipPath>
<clipPath id="clip-10">
<path clip-rule="nonzero" d="M 1899.859375 938.910156 L 1662.390625 1176.378906 C 1677.820312 1187.371094 1694.589844 1196.800781 1714.53125 1202.578125 C 1716.898438 1203.269531 1718.539062 1205.371094 1718.539062 1207.820312 L 1718.539062 1222 C 1718.539062 1231.898438 1726.558594 1239.921875 1736.449219 1239.921875 L 1736.449219 1221.75 C 1736.449219 1219.949219 1737.601562 1218.25 1739.351562 1217.820312 C 1741.941406 1217.171875 1744.25 1219.109375 1744.25 1221.589844 L 1744.25 1250.039062 C 1744.25 1268.328125 1759.089844 1283.140625 1777.359375 1283.140625 L 1777.359375 1260.941406 C 1777.359375 1259.011719 1778.941406 1257.449219 1780.878906 1257.449219 C 1782.808594 1257.449219 1784.371094 1259.011719 1784.371094 1260.941406 L 1784.371094 1277.691406 C 1784.371094 1285.871094 1790.988281 1292.5 1799.179688 1292.5 L 1799.179688 1263.601562 C 1799.179688 1260.75 1801.21875 1258.148438 1804.058594 1257.859375 C 1807.320312 1257.53125 1810.058594 1260.070312 1810.058594 1263.261719 L 1810.058594 1280.800781 C 1814.421875 1276.429688 1817.828125 1271.308594 1820.121094 1265.71875 C 1822.441406 1260.128906 1823.671875 1254.101562 1823.671875 1247.941406 L 1823.671875 1185.191406 C 1823.671875 1182.269531 1824.839844 1179.488281 1826.878906 1177.441406 L 1836.238281 1168.089844 C 1838.199219 1166.128906 1838.199219 1162.949219 1836.25 1160.980469 L 1830.730469 1155.429688 C 1828.328125 1153.058594 1828.328125 1149.21875 1830.730469 1146.820312 L 1840.871094 1136.671875 L 1840.871094 1098.488281 C 1851.75 1102.480469 1863.941406 1105.558594 1877.878906 1107.46875 C 1883.628906 1108.230469 1888.839844 1103.808594 1889.109375 1098 C 1890.800781 1058.300781 1881.589844 1023.339844 1862.308594 992.710938 C 1887.96875 977.789062 1894.839844 964.871094 1899.859375 938.910156 Z M 1899.859375 938.910156 "/>
</clipPath>
<clipPath id="clip-11">
<path clip-rule="nonzero" d="M 1899.859375 938.910156 L 1662.390625 1176.378906 C 1677.820312 1187.371094 1694.589844 1196.800781 1714.53125 1202.578125 C 1716.898438 1203.269531 1718.539062 1205.371094 1718.539062 1207.820312 L 1718.539062 1222 C 1718.539062 1231.898438 1726.558594 1239.921875 1736.449219 1239.921875 L 1736.449219 1221.75 C 1736.449219 1219.949219 1737.601562 1218.25 1739.351562 1217.820312 C 1741.941406 1217.171875 1744.25 1219.109375 1744.25 1221.589844 L 1744.25 1250.039062 C 1744.25 1268.328125 1759.089844 1283.140625 1777.359375 1283.140625 L 1777.359375 1260.941406 C 1777.359375 1259.011719 1778.941406 1257.449219 1780.878906 1257.449219 C 1782.808594 1257.449219 1784.371094 1259.011719 1784.371094 1260.941406 L 1784.371094 1277.691406 C 1784.371094 1285.871094 1790.988281 1292.5 1799.179688 1292.5 L 1799.179688 1263.601562 C 1799.179688 1260.75 1801.21875 1258.148438 1804.058594 1257.859375 C 1807.320312 1257.53125 1810.058594 1260.070312 1810.058594 1263.261719 L 1810.058594 1280.800781 C 1814.421875 1276.429688 1817.828125 1271.308594 1820.121094 1265.71875 C 1822.441406 1260.128906 1823.671875 1254.101562 1823.671875 1247.941406 L 1823.671875 1185.191406 C 1823.671875 1182.269531 1824.839844 1179.488281 1826.878906 1177.441406 L 1836.238281 1168.089844 C 1838.199219 1166.128906 1838.199219 1162.949219 1836.25 1160.980469 L 1830.730469 1155.429688 C 1828.328125 1153.058594 1828.328125 1149.21875 1830.730469 1146.820312 L 1840.871094 1136.671875 L 1840.871094 1098.488281 C 1851.75 1102.480469 1863.941406 1105.558594 1877.878906 1107.46875 C 1883.628906 1108.230469 1888.839844 1103.808594 1889.109375 1098 C 1890.800781 1058.300781 1881.589844 1023.339844 1862.308594 992.710938 C 1887.96875 977.789062 1894.839844 964.871094 1899.859375 938.910156 "/>
</clipPath>
<linearGradient id="linear-pattern-3" gradientUnits="userSpaceOnUse" x1="0.5121" y1="0" x2="0.789151" y2="0" gradientTransform="matrix(680.132, 1364.49, -1364.49, 680.132, 1361.79, 216.38)">
<stop offset="0" stop-color="rgb(8.381653%, 7.948303%, 8.91571%)" stop-opacity="1"/>
<stop offset="0.0625" stop-color="rgb(8.358765%, 7.951355%, 8.892822%)" stop-opacity="1"/>
<stop offset="0.125" stop-color="rgb(8.296204%, 7.91626%, 8.804321%)" stop-opacity="1"/>
<stop offset="0.25" stop-color="rgb(8.259583%, 7.876587%, 8.740234%)" stop-opacity="1"/>
<stop offset="0.3125" stop-color="rgb(8.256531%, 7.901001%, 8.750916%)" stop-opacity="1"/>
<stop offset="0.375" stop-color="rgb(8.250427%, 7.93457%, 8.746338%)" stop-opacity="1"/>
<stop offset="0.5" stop-color="rgb(8.242798%, 7.885742%, 8.650208%)" stop-opacity="1"/>
<stop offset="0.5625" stop-color="rgb(8.235168%, 7.827759%, 8.566284%)" stop-opacity="1"/>
<stop offset="0.625" stop-color="rgb(8.229065%, 7.861328%, 8.557129%)" stop-opacity="1"/>
<stop offset="0.75" stop-color="rgb(8.224487%, 7.891846%, 8.547974%)" stop-opacity="1"/>
<stop offset="0.8125" stop-color="rgb(8.198547%, 7.86438%, 8.505249%)" stop-opacity="1"/>
<stop offset="0.875" stop-color="rgb(8.14209%, 7.804871%, 8.407593%)" stop-opacity="1"/>
<stop offset="1" stop-color="rgb(8.110046%, 7.771301%, 8.352661%)" stop-opacity="1"/>
</linearGradient>
<clipPath id="clip-12">
<path clip-rule="nonzero" d="M 1007 282 L 2191 282 L 2191 1718 L 1007 1718 Z M 1007 282 "/>
</clipPath>
<clipPath id="clip-13">
<path clip-rule="nonzero" d="M 1655.390625 1363.800781 L 1655.210938 1363.71875 L 1655.140625 1363.699219 C 1652.171875 1362.21875 1649.171875 1360.78125 1646.148438 1359.378906 C 1648.671875 1361.550781 1651.171875 1363.699219 1653.640625 1365.839844 L 1653.710938 1365.96875 C 1653.738281 1365.988281 1653.789062 1366.039062 1653.890625 1366.089844 C 1631.371094 1357.328125 1608.289062 1350.320312 1584.71875 1346 C 1460.359375 1322.011719 1350.078125 1385.738281 1270.460938 1477.25 C 1239.078125 1513.121094 1210.949219 1552.679688 1188.261719 1594.539062 C 1183.390625 1603.980469 1168.988281 1597.339844 1173.578125 1587.28125 C 1251.058594 1438.78125 1406.5 1293.03125 1586.390625 1338.261719 C 1607.011719 1343.25 1626.960938 1350.519531 1646.148438 1359.378906 C 1627.460938 1343.550781 1607.710938 1328.929688 1586.820312 1316.21875 C 1450.398438 1232.03125 1321.449219 1274.980469 1218.941406 1387.511719 C 1182.070312 1427.96875 1149.988281 1473.851562 1124.960938 1522.429688 C 1118.621094 1535.160156 1099.550781 1526.019531 1105.988281 1512.921875 C 1205.910156 1335.441406 1387.550781 1179.859375 1589.488281 1311.929688 C 1613.050781 1327.199219 1634.941406 1344.78125 1655.390625 1363.800781 Z M 1110.078125 1364.648438 C 1138.140625 1331.148438 1172.28125 1302.589844 1209.949219 1280.480469 C 1218.210938 1275.460938 1227.820312 1270.421875 1236.359375 1266 C 1237.058594 1265.621094 1237.859375 1265.871094 1238.230469 1266.519531 C 1238.578125 1267.21875 1238.328125 1268.050781 1237.660156 1268.390625 C 1229.421875 1273.238281 1220.160156 1278.699219 1212.101562 1284 C 1153.789062 1321.460938 1104.089844 1373.628906 1073.511719 1436.109375 C 1061.910156 1459.871094 1053.519531 1484.859375 1045.53125 1510.050781 C 1045.328125 1510.820312 1044.558594 1511.289062 1043.78125 1511.039062 C 1043.210938 1510.839844 1042.828125 1510.300781 1042.828125 1509.71875 C 1044.679688 1460.070312 1079.078125 1402.359375 1110.078125 1364.648438 Z M 1391.121094 528.339844 C 1391.21875 527.71875 1392.171875 527.71875 1392.238281 528.339844 C 1394.191406 538.5 1398.609375 549.230469 1407.449219 554.621094 C 1416.511719 560.210938 1426.871094 557.769531 1437.269531 556.820312 C 1437.871094 556.75 1438.449219 557.171875 1438.46875 557.769531 C 1438.269531 559.289062 1435.53125 560.160156 1434.351562 561.058594 C 1418.648438 570.46875 1398.53125 563.191406 1392.871094 545.640625 C 1390.921875 540 1390.269531 534.03125 1391.121094 528.339844 Z M 1429.859375 501.859375 C 1432.628906 509.371094 1434.03125 518.128906 1433.949219 528.160156 C 1424.621094 529.191406 1415.261719 526.089844 1405.898438 518.800781 C 1412.191406 511.238281 1420.28125 505.75 1429.859375 501.859375 Z M 1644.878906 1317.691406 C 1581.980469 1231.980469 1491.921875 1177.980469 1385.058594 1171.148438 C 1384.28125 1171.101562 1383.730469 1170.421875 1383.78125 1169.699219 C 1383.859375 1169 1384.378906 1168.46875 1385.078125 1168.421875 C 1411.308594 1167.128906 1437.820312 1169.621094 1463.660156 1175.390625 C 1528.179688 1190.570312 1587.871094 1228.558594 1627.011719 1282.320312 C 1634.789062 1293.03125 1641.859375 1304.238281 1647.269531 1316.421875 C 1647.851562 1317.820312 1645.929688 1319.171875 1644.878906 1317.691406 Z M 1646.558594 879.238281 C 1687.921875 873.949219 1831.238281 899.019531 1871.28125 907.050781 C 1882.988281 909.53125 1894.769531 911.648438 1906.648438 912.839844 L 1906.898438 912.871094 L 1906.921875 912.871094 C 1909.191406 913.140625 1911.488281 913.238281 1913.789062 913.238281 L 2189.558594 913.238281 C 2190.960938 913.238281 2191.160156 911.199219 2189.761719 910.921875 L 1975.839844 867.488281 C 1970.570312 866.421875 1967.601562 860.769531 1969.800781 855.929688 C 1981.761719 829.570312 1988.101562 796.25 1989.25 756.441406 C 1989.371094 753.039062 1986.898438 750.101562 1983.550781 749.550781 L 1928.339844 740.558594 C 1940.898438 721.589844 1945.859375 701.351562 1946.191406 680.308594 C 1946.261719 676.261719 1943.488281 672.71875 1939.570312 671.789062 L 1900.859375 662.558594 C 1994.261719 552.351562 2084.019531 422.378906 2172.011719 282.71875 C 2059.058594 401.289062 1955.269531 516.230469 1875.71875 621.640625 C 1814.371094 511.019531 1577.53125 446.339844 1466.679688 548.011719 C 1466.03125 436.359375 1413.261719 383.238281 1343.371094 349.339844 L 1353.898438 413.621094 C 1312.890625 350.339844 1247.890625 335.488281 1177.398438 331.820312 C 1201.191406 376.101562 1232.089844 416.089844 1270.328125 451.609375 C 1217.738281 430.921875 1167.921875 416.539062 1123.058594 413.621094 C 1147.25 456.871094 1182.789062 496.640625 1225.929688 534.011719 L 1170.011719 534.011719 C 1206.480469 574.988281 1245.101562 601.730469 1286.078125 612.578125 C 1300.089844 616.328125 1314.359375 618.199219 1328.941406 618.148438 C 1322.980469 630.558594 1317.609375 643.539062 1313.71875 657.710938 L 1313.71875 657.738281 C 1248.121094 656.089844 1115.371094 689.238281 1048.75 769.519531 C 1046.828125 771.839844 1047.148438 775.28125 1049.46875 777.210938 C 1050.46875 778.050781 1051.71875 778.449219 1052.941406 778.449219 C 1054.519531 778.449219 1056.058594 777.78125 1057.140625 776.480469 C 1120.738281 699.820312 1246.988281 667.671875 1311.039062 668.550781 C 1309 678.011719 1307.628906 688.019531 1307.128906 698.800781 C 1211.300781 736.769531 1180.320312 896.890625 1019.648438 912.671875 C 1084.738281 919.480469 1136.488281 907.601562 1181.5 886.359375 C 1128.328125 930.789062 1151.121094 1023.121094 1074.589844 1065.179688 C 1132.121094 1073.320312 1176.949219 1069.148438 1202.808594 1046.539062 C 1212.601562 1037.980469 1226.300781 1035.609375 1238.058594 1041.171875 L 1273.429688 1057.921875 C 1284.558594 1063.191406 1289.148438 1076.589844 1283.660156 1087.621094 C 1278.71875 1097.511719 1267.191406 1102.179688 1256.730469 1098.53125 L 1230.019531 1089.148438 C 1211.570312 1110.460938 1196.46875 1139.519531 1183.539062 1173.589844 L 1204.308594 1194.308594 C 1098.769531 1269.96875 1025.011719 1370.289062 1010.261719 1516.441406 C 1009.691406 1521.898438 1009.210938 1527.421875 1008.839844 1533.011719 C 1008.109375 1543.371094 1007.691406 1553.980469 1007.558594 1564.808594 C 1007.261719 1588.480469 1008.410156 1613.261719 1011.058594 1639.25 C 1064 1683.808594 1125.390625 1705.121094 1192.460938 1713.199219 C 1207.53125 1715.019531 1221.441406 1705.328125 1225.261719 1690.640625 L 1225.328125 1690.390625 C 1248.320312 1602.449219 1314.761719 1533.378906 1402.929688 1499.761719 C 1484.878906 1468.691406 1574.808594 1468.140625 1658.160156 1490.179688 C 1684.441406 1497.21875 1710.078125 1506.179688 1734.488281 1517.910156 C 1735.160156 1518.261719 1735.460938 1519.078125 1735.140625 1519.761719 C 1734.859375 1520.308594 1734.320312 1520.601562 1733.769531 1520.550781 C 1706.859375 1518.160156 1680.519531 1515.410156 1654.308594 1513.769531 C 1571.570312 1508.648438 1485.921875 1512.539062 1408.691406 1542.070312 C 1343.691406 1566.53125 1287.761719 1612.109375 1252.441406 1672.421875 C 1247.871094 1680.078125 1243.601562 1687.96875 1239.628906 1696.058594 L 1239.53125 1696.261719 C 1234.78125 1705.800781 1241.789062 1716.96875 1252.449219 1717.160156 C 1269.539062 1717.46875 1286.929688 1717.160156 1304.578125 1716.378906 C 1422.300781 1711.261719 1551.21875 1685.449219 1679.570312 1682.328125 C 1739.058594 1680.859375 1798.421875 1684.28125 1856.449219 1696.878906 C 1851.160156 1671.398438 1844.121094 1645.960938 1835.710938 1620.570312 C 1832.089844 1609.589844 1828.191406 1598.628906 1824.050781 1587.679688 C 1813.589844 1559.738281 1801.609375 1531.859375 1788.558594 1504.011719 C 1769.539062 1463.289062 1748.289062 1422.660156 1726.28125 1382.039062 C 1723.261719 1376.449219 1721.628906 1370.210938 1721.628906 1363.871094 L 1721.628906 1318.871094 C 1721.628906 1303.269531 1711.25 1289.609375 1696.21875 1285.441406 L 1651.539062 1273.011719 L 1651.640625 1168.320312 L 1652.019531 1167.480469 L 1887.550781 931.949219 C 1823.5 905.671875 1737.601562 891.078125 1646.558594 879.238281 Z M 1646.558594 879.238281 "/>
</clipPath>
<clipPath id="clip-14">
<path clip-rule="nonzero" d="M 1655.390625 1363.800781 L 1655.210938 1363.71875 L 1655.140625 1363.699219 C 1652.171875 1362.21875 1649.171875 1360.78125 1646.148438 1359.378906 C 1648.671875 1361.550781 1651.171875 1363.699219 1653.640625 1365.839844 L 1653.710938 1365.96875 C 1653.738281 1365.988281 1653.789062 1366.039062 1653.890625 1366.089844 C 1631.371094 1357.328125 1608.289062 1350.320312 1584.71875 1346 C 1460.359375 1322.011719 1350.078125 1385.738281 1270.460938 1477.25 C 1239.078125 1513.121094 1210.949219 1552.679688 1188.261719 1594.539062 C 1183.390625 1603.980469 1168.988281 1597.339844 1173.578125 1587.28125 C 1251.058594 1438.78125 1406.5 1293.03125 1586.390625 1338.261719 C 1607.011719 1343.25 1626.960938 1350.519531 1646.148438 1359.378906 C 1627.460938 1343.550781 1607.710938 1328.929688 1586.820312 1316.21875 C 1450.398438 1232.03125 1321.449219 1274.980469 1218.941406 1387.511719 C 1182.070312 1427.96875 1149.988281 1473.851562 1124.960938 1522.429688 C 1118.621094 1535.160156 1099.550781 1526.019531 1105.988281 1512.921875 C 1205.910156 1335.441406 1387.550781 1179.859375 1589.488281 1311.929688 C 1613.050781 1327.199219 1634.941406 1344.78125 1655.390625 1363.800781 Z M 1110.078125 1364.648438 C 1138.140625 1331.148438 1172.28125 1302.589844 1209.949219 1280.480469 C 1218.210938 1275.460938 1227.820312 1270.421875 1236.359375 1266 C 1237.058594 1265.621094 1237.859375 1265.871094 1238.230469 1266.519531 C 1238.578125 1267.21875 1238.328125 1268.050781 1237.660156 1268.390625 C 1229.421875 1273.238281 1220.160156 1278.699219 1212.101562 1284 C 1153.789062 1321.460938 1104.089844 1373.628906 1073.511719 1436.109375 C 1061.910156 1459.871094 1053.519531 1484.859375 1045.53125 1510.050781 C 1045.328125 1510.820312 1044.558594 1511.289062 1043.78125 1511.039062 C 1043.210938 1510.839844 1042.828125 1510.300781 1042.828125 1509.71875 C 1044.679688 1460.070312 1079.078125 1402.359375 1110.078125 1364.648438 Z M 1391.121094 528.339844 C 1391.21875 527.71875 1392.171875 527.71875 1392.238281 528.339844 C 1394.191406 538.5 1398.609375 549.230469 1407.449219 554.621094 C 1416.511719 560.210938 1426.871094 557.769531 1437.269531 556.820312 C 1437.871094 556.75 1438.449219 557.171875 1438.46875 557.769531 C 1438.269531 559.289062 1435.53125 560.160156 1434.351562 561.058594 C 1418.648438 570.46875 1398.53125 563.191406 1392.871094 545.640625 C 1390.921875 540 1390.269531 534.03125 1391.121094 528.339844 Z M 1429.859375 501.859375 C 1432.628906 509.371094 1434.03125 518.128906 1433.949219 528.160156 C 1424.621094 529.191406 1415.261719 526.089844 1405.898438 518.800781 C 1412.191406 511.238281 1420.28125 505.75 1429.859375 501.859375 Z M 1644.878906 1317.691406 C 1581.980469 1231.980469 1491.921875 1177.980469 1385.058594 1171.148438 C 1384.28125 1171.101562 1383.730469 1170.421875 1383.78125 1169.699219 C 1383.859375 1169 1384.378906 1168.46875 1385.078125 1168.421875 C 1411.308594 1167.128906 1437.820312 1169.621094 1463.660156 1175.390625 C 1528.179688 1190.570312 1587.871094 1228.558594 1627.011719 1282.320312 C 1634.789062 1293.03125 1641.859375 1304.238281 1647.269531 1316.421875 C 1647.851562 1317.820312 1645.929688 1319.171875 1644.878906 1317.691406 Z M 1646.558594 879.238281 C 1687.921875 873.949219 1831.238281 899.019531 1871.28125 907.050781 C 1882.988281 909.53125 1894.769531 911.648438 1906.648438 912.839844 L 1906.898438 912.871094 L 1906.921875 912.871094 C 1909.191406 913.140625 1911.488281 913.238281 1913.789062 913.238281 L 2189.558594 913.238281 C 2190.960938 913.238281 2191.160156 911.199219 2189.761719 910.921875 L 1975.839844 867.488281 C 1970.570312 866.421875 1967.601562 860.769531 1969.800781 855.929688 C 1981.761719 829.570312 1988.101562 796.25 1989.25 756.441406 C 1989.371094 753.039062 1986.898438 750.101562 1983.550781 749.550781 L 1928.339844 740.558594 C 1940.898438 721.589844 1945.859375 701.351562 1946.191406 680.308594 C 1946.261719 676.261719 1943.488281 672.71875 1939.570312 671.789062 L 1900.859375 662.558594 C 1994.261719 552.351562 2084.019531 422.378906 2172.011719 282.71875 C 2059.058594 401.289062 1955.269531 516.230469 1875.71875 621.640625 C 1814.371094 511.019531 1577.53125 446.339844 1466.679688 548.011719 C 1466.03125 436.359375 1413.261719 383.238281 1343.371094 349.339844 L 1353.898438 413.621094 C 1312.890625 350.339844 1247.890625 335.488281 1177.398438 331.820312 C 1201.191406 376.101562 1232.089844 416.089844 1270.328125 451.609375 C 1217.738281 430.921875 1167.921875 416.539062 1123.058594 413.621094 C 1147.25 456.871094 1182.789062 496.640625 1225.929688 534.011719 L 1170.011719 534.011719 C 1206.480469 574.988281 1245.101562 601.730469 1286.078125 612.578125 C 1300.089844 616.328125 1314.359375 618.199219 1328.941406 618.148438 C 1322.980469 630.558594 1317.609375 643.539062 1313.71875 657.710938 L 1313.71875 657.738281 C 1248.121094 656.089844 1115.371094 689.238281 1048.75 769.519531 C 1046.828125 771.839844 1047.148438 775.28125 1049.46875 777.210938 C 1050.46875 778.050781 1051.71875 778.449219 1052.941406 778.449219 C 1054.519531 778.449219 1056.058594 777.78125 1057.140625 776.480469 C 1120.738281 699.820312 1246.988281 667.671875 1311.039062 668.550781 C 1309 678.011719 1307.628906 688.019531 1307.128906 698.800781 C 1211.300781 736.769531 1180.320312 896.890625 1019.648438 912.671875 C 1084.738281 919.480469 1136.488281 907.601562 1181.5 886.359375 C 1128.328125 930.789062 1151.121094 1023.121094 1074.589844 1065.179688 C 1132.121094 1073.320312 1176.949219 1069.148438 1202.808594 1046.539062 C 1212.601562 1037.980469 1226.300781 1035.609375 1238.058594 1041.171875 L 1273.429688 1057.921875 C 1284.558594 1063.191406 1289.148438 1076.589844 1283.660156 1087.621094 C 1278.71875 1097.511719 1267.191406 1102.179688 1256.730469 1098.53125 L 1230.019531 1089.148438 C 1211.570312 1110.460938 1196.46875 1139.519531 1183.539062 1173.589844 L 1204.308594 1194.308594 C 1098.769531 1269.96875 1025.011719 1370.289062 1010.261719 1516.441406 C 1009.691406 1521.898438 1009.210938 1527.421875 1008.839844 1533.011719 C 1008.109375 1543.371094 1007.691406 1553.980469 1007.558594 1564.808594 C 1007.261719 1588.480469 1008.410156 1613.261719 1011.058594 1639.25 C 1064 1683.808594 1125.390625 1705.121094 1192.460938 1713.199219 C 1207.53125 1715.019531 1221.441406 1705.328125 1225.261719 1690.640625 L 1225.328125 1690.390625 C 1248.320312 1602.449219 1314.761719 1533.378906 1402.929688 1499.761719 C 1484.878906 1468.691406 1574.808594 1468.140625 1658.160156 1490.179688 C 1684.441406 1497.21875 1710.078125 1506.179688 1734.488281 1517.910156 C 1735.160156 1518.261719 1735.460938 1519.078125 1735.140625 1519.761719 C 1734.859375 1520.308594 1734.320312 1520.601562 1733.769531 1520.550781 C 1706.859375 1518.160156 1680.519531 1515.410156 1654.308594 1513.769531 C 1571.570312 1508.648438 1485.921875 1512.539062 1408.691406 1542.070312 C 1343.691406 1566.53125 1287.761719 1612.109375 1252.441406 1672.421875 C 1247.871094 1680.078125 1243.601562 1687.96875 1239.628906 1696.058594 L 1239.53125 1696.261719 C 1234.78125 1705.800781 1241.789062 1716.96875 1252.449219 1717.160156 C 1269.539062 1717.46875 1286.929688 1717.160156 1304.578125 1716.378906 C 1422.300781 1711.261719 1551.21875 1685.449219 1679.570312 1682.328125 C 1739.058594 1680.859375 1798.421875 1684.28125 1856.449219 1696.878906 C 1851.160156 1671.398438 1844.121094 1645.960938 1835.710938 1620.570312 C 1832.089844 1609.589844 1828.191406 1598.628906 1824.050781 1587.679688 C 1813.589844 1559.738281 1801.609375 1531.859375 1788.558594 1504.011719 C 1769.539062 1463.289062 1748.289062 1422.660156 1726.28125 1382.039062 C 1723.261719 1376.449219 1721.628906 1370.210938 1721.628906 1363.871094 L 1721.628906 1318.871094 C 1721.628906 1303.269531 1711.25 1289.609375 1696.21875 1285.441406 L 1651.539062 1273.011719 L 1651.640625 1168.320312 L 1652.019531 1167.480469 L 1887.550781 931.949219 C 1823.5 905.671875 1737.601562 891.078125 1646.558594 879.238281 "/>
</clipPath>
<linearGradient id="linear-pattern-4" gradientUnits="userSpaceOnUse" x1="-0.0542591" y1="0" x2="1.119202" y2="0" gradientTransform="matrix(688.935, 1382.15, -1382.15, 688.935, 1241.84, 259.42)">
<stop offset="0" stop-color="rgb(8.69751%, 8.172607%, 9.724426%)" stop-opacity="1"/>
<stop offset="0.03125" stop-color="rgb(8.69751%, 8.172607%, 9.724426%)" stop-opacity="1"/>
<stop offset="0.046875" stop-color="rgb(8.694458%, 8.169556%, 9.721375%)" stop-opacity="1"/>
<stop offset="0.0625" stop-color="rgb(8.638%, 8.111572%, 9.646606%)" stop-opacity="1"/>
<stop offset="0.078125" stop-color="rgb(8.583069%, 8.067322%, 9.570312%)" stop-opacity="1"/>
<stop offset="0.09375" stop-color="rgb(8.576965%, 8.102417%, 9.561157%)" stop-opacity="1"/>
<stop offset="0.125" stop-color="rgb(8.573914%, 8.125305%, 9.55658%)" stop-opacity="1"/>
<stop offset="0.140625" stop-color="rgb(8.624268%, 8.126831%, 9.552002%)" stop-opacity="1"/>
<stop offset="0.148438" stop-color="rgb(8.642578%, 8.113098%, 9.515381%)" stop-opacity="1"/>
<stop offset="0.15625" stop-color="rgb(8.581543%, 8.088684%, 9.454346%)" stop-opacity="1"/>
<stop offset="0.1875" stop-color="rgb(8.554077%, 8.078003%, 9.428406%)" stop-opacity="1"/>
<stop offset="0.21875" stop-color="rgb(8.5495%, 8.102417%, 9.440613%)" stop-opacity="1"/>
<stop offset="0.234375" stop-color="rgb(8.543396%, 8.137512%, 9.432983%)" stop-opacity="1"/>
<stop offset="0.242188" stop-color="rgb(8.514404%, 8.117676%, 9.376526%)" stop-opacity="1"/>
<stop offset="0.25" stop-color="rgb(8.457947%, 8.058167%, 9.298706%)" stop-opacity="1"/>
<stop offset="0.265625" stop-color="rgb(8.441162%, 8.029175%, 9.259033%)" stop-opacity="1"/>
<stop offset="0.28125" stop-color="rgb(8.493042%, 8.029175%, 9.254456%)" stop-opacity="1"/>
<stop offset="0.3125" stop-color="rgb(8.529663%, 8.053589%, 9.262085%)" stop-opacity="1"/>
<stop offset="0.328125" stop-color="rgb(8.474731%, 8.036804%, 9.214783%)" stop-opacity="1"/>
<stop offset="0.34375" stop-color="rgb(8.416748%, 7.987976%, 9.143066%)" stop-opacity="1"/>
<stop offset="0.351562" stop-color="rgb(8.407593%, 7.978821%, 9.117126%)" stop-opacity="1"/>
<stop offset="0.359375" stop-color="rgb(8.407593%, 7.978821%, 9.094238%)" stop-opacity="1"/>
<stop offset="0.375" stop-color="rgb(8.407593%, 7.980347%, 9.083557%)" stop-opacity="1"/>
<stop offset="0.40625" stop-color="rgb(8.404541%, 8.000183%, 9.092712%)" stop-opacity="1"/>
<stop offset="0.421875" stop-color="rgb(8.355713%, 7.987976%, 9.031677%)" stop-opacity="1"/>
<stop offset="0.4375" stop-color="rgb(8.343506%, 7.9422%, 8.935547%)" stop-opacity="1"/>
<stop offset="0.46875" stop-color="rgb(8.381653%, 7.929993%, 8.908081%)" stop-opacity="1"/>
<stop offset="0.484375" stop-color="rgb(8.383179%, 7.943726%, 8.914185%)" stop-opacity="1"/>
<stop offset="0.5" stop-color="rgb(8.346558%, 7.943726%, 8.874512%)" stop-opacity="1"/>
<stop offset="0.53125" stop-color="rgb(8.285522%, 7.904053%, 8.786011%)" stop-opacity="1"/>
<stop offset="0.546875" stop-color="rgb(8.259583%, 7.878113%, 8.740234%)" stop-opacity="1"/>
<stop offset="0.5625" stop-color="rgb(8.255005%, 7.910156%, 8.752441%)" stop-opacity="1"/>
<stop offset="0.59375" stop-color="rgb(8.24585%, 7.914734%, 8.705139%)" stop-opacity="1"/>
<stop offset="0.625" stop-color="rgb(8.235168%, 7.88269%, 8.599854%)" stop-opacity="1"/>
<stop offset="0.65625" stop-color="rgb(8.226013%, 7.884216%, 8.5495%)" stop-opacity="1"/>
<stop offset="0.671875" stop-color="rgb(8.209229%, 7.876587%, 8.52356%)" stop-opacity="1"/>
<stop offset="0.6875" stop-color="rgb(8.152771%, 7.817078%, 8.425903%)" stop-opacity="1"/>
<stop offset="0.71875" stop-color="rgb(8.110046%, 7.771301%, 8.352661%)" stop-opacity="1"/>
<stop offset="0.734375" stop-color="rgb(8.105469%, 7.798767%, 8.364868%)" stop-opacity="1"/>
<stop offset="0.742188" stop-color="rgb(8.122253%, 7.832336%, 8.378601%)" stop-opacity="1"/>
<stop offset="0.75" stop-color="rgb(8.16803%, 7.835388%, 8.374023%)" stop-opacity="1"/>
<stop offset="0.765625" stop-color="rgb(8.137512%, 7.775879%, 8.293152%)" stop-opacity="1"/>
<stop offset="0.78125" stop-color="rgb(8.081055%, 7.71637%, 8.198547%)" stop-opacity="1"/>
<stop offset="0.8125" stop-color="rgb(8.082581%, 7.71637%, 8.180237%)" stop-opacity="1"/>
<stop offset="0.84375" stop-color="rgb(8.076477%, 7.746887%, 8.19397%)" stop-opacity="1"/>
<stop offset="0.851562" stop-color="rgb(8.041382%, 7.745361%, 8.155823%)" stop-opacity="1"/>
<stop offset="0.859375" stop-color="rgb(7.983398%, 7.685852%, 8.059692%)" stop-opacity="1"/>
<stop offset="0.875" stop-color="rgb(7.955933%, 7.658386%, 8.015442%)" stop-opacity="1"/>
<stop offset="1" stop-color="rgb(7.955933%, 7.658386%, 8.015442%)" stop-opacity="1"/>
</linearGradient>
</defs>
<rect x="-300" y="-200" width="3600" height="2400" fill="rgb(81.463623%, 80.311584%, 78.715515%)" fill-opacity="1"/>
<g clip-path="url(#clip-0)">
<g clip-path="url(#clip-1)">
<g clip-path="url(#clip-2)">
<path fill-rule="nonzero" fill="url(#linear-pattern-0)" d="M 809.285156 1429.671875 L 2077.011719 1429.671875 L 2077.011719 528.160156 L 809.285156 528.160156 Z M 809.285156 1429.671875 "/>
</g>
</g>
</g>
<path fill-rule="nonzero" fill="rgb(90.585327%, 21.377563%, 21.380615%)" fill-opacity="1" d="M 2014.328125 1162.03125 C 2014.328125 1237.988281 1999.601562 1311.679688 1971.5 1379.871094 C 1968.949219 1386.089844 1966.261719 1392.25 1963.488281 1398.371094 C 1940.96875 1447.890625 1911.21875 1494.269531 1874.769531 1536.160156 C 1865.941406 1546.371094 1856.699219 1556.269531 1847.039062 1565.910156 C 1839.550781 1573.398438 1831.890625 1580.660156 1824.050781 1587.679688 C 1821.730469 1589.769531 1819.378906 1591.839844 1817.039062 1593.871094 C 1775.25 1630.191406 1729 1659.839844 1679.570312 1682.328125 C 1551.21875 1685.449219 1422.300781 1711.261719 1304.578125 1716.378906 C 1282.488281 1710.910156 1260.820312 1704.121094 1239.628906 1696.058594 C 1234.839844 1694.238281 1230.070312 1692.359375 1225.328125 1690.390625 C 1156.558594 1662.039062 1093.429688 1620.101562 1039.269531 1565.910156 C 1029.628906 1556.300781 1020.371094 1546.371094 1011.558594 1536.179688 C 1010.628906 1535.128906 1009.738281 1534.058594 1008.839844 1533.011719 C 973.59375 1491.949219 944.761719 1446.640625 922.820312 1398.371094 C 920.023438 1392.25 917.355469 1386.089844 914.808594 1379.871094 C 886.699219 1311.679688 871.949219 1237.988281 871.949219 1162.03125 C 871.949219 1009.46875 931.355469 866.019531 1039.269531 758.128906 C 1109.03125 688.371094 1193.699219 638.839844 1286.078125 612.578125 C 1337.878906 597.839844 1392.140625 590.421875 1447.558594 590.828125 C 1597.71875 591.960938 1740.859375 651.949219 1847.039062 758.128906 C 1892.96875 804.058594 1930.140625 856.460938 1957.640625 913.238281 C 1994.738281 989.828125 2014.328125 1074.421875 2014.328125 1162.03125 "/>
<g clip-path="url(#clip-3)">
<g clip-path="url(#clip-4)">
<g clip-path="url(#clip-5)">
<path fill-rule="nonzero" fill="url(#linear-pattern-1)" d="M 980.660156 1279.898438 L 713.488281 1413.070312 L 851.863281 1690.683594 L 1119.039062 1557.507812 Z M 980.660156 1279.898438 "/>
</g>
</g>
</g>
<g clip-path="url(#clip-6)">
<g clip-path="url(#clip-7)">
<g clip-path="url(#clip-8)">
<path fill-rule="nonzero" fill="url(#linear-pattern-2)" d="M 2015.128906 1241.171875 L 1663.144531 1416.617188 L 1827.941406 1747.238281 L 2179.925781 1571.792969 Z M 2015.128906 1241.171875 "/>
</g>
</g>
</g>
<g clip-path="url(#clip-9)">
<g clip-path="url(#clip-10)">
<g clip-path="url(#clip-11)">
<path fill-rule="nonzero" fill="url(#linear-pattern-3)" d="M 1852.601562 844.097656 L 1521.21875 1009.277344 L 1709.648438 1387.3125 L 2041.03125 1222.132812 Z M 1852.601562 844.097656 "/>
</g>
</g>
</g>
<g clip-path="url(#clip-12)">
<g clip-path="url(#clip-13)">
<g clip-path="url(#clip-14)">
<path fill-rule="nonzero" fill="url(#linear-pattern-4)" d="M 1955.554688 -189.957031 L 434.429688 568.25 L 1242.867188 2190.148438 L 2763.992188 1431.941406 Z M 1955.554688 -189.957031 "/>
</g>
</g>
</g>
</svg>
